<svg width="18" height="14" viewBox="0 0 18 14" fill="none" xmlns="http://www.w3.org/2000/svg">
<path d="M10.5 2C10.5 1.17157 9.82843 0.5 9 0.5C8.17157 0.5 7.5 1.17157 7.5 2H10.5ZM9 12L7.98539 13.1048C8.55917 13.6317 9.44083 13.6317 10.0146 13.1048L9 12ZM3.01461 4.46663C2.40445 3.90628 1.45556 3.94666 0.895205 4.55682C0.334853 5.16698 0.375231 6.11587 0.985393 6.67622L3.01461 4.46663ZM17.0146 6.67622C17.6248 6.11587 17.6651 5.16698 17.1048 4.55682C16.5444 3.94666 15.5956 3.90628 14.9854 4.46663L17.0146 6.67622ZM7.5 2V12H10.5V2H7.5ZM10.0146 10.8952L3.01461 4.46663L0.985393 6.67622L7.98539 13.1048L10.0146 10.8952ZM10.0146 13.1048L17.0146 6.67622L14.9854 4.46663L7.98539 10.8952L10.0146 13.1048Z" fill="#1D9300"/>
</svg>
