<svg width="166" height="50" viewBox="0 0 166 50" fill="none" xmlns="http://www.w3.org/2000/svg">
<g filter="url(#filter0_d_65_101)">
<path d="M21.408 14.664V18.28H15.456V37H10.976V18.28H5.024V14.664H21.408ZM23.5247 28.072C23.5247 26.28 23.8767 24.6907 24.5807 23.304C25.3061 21.9173 26.2768 20.8507 27.4928 20.104C28.7301 19.3573 30.1061 18.984 31.6208 18.984C32.9434 18.984 34.0954 19.2507 35.0768 19.784C36.0794 20.3173 36.8794 20.9893 37.4768 21.8V19.272H41.9888V37H37.4768V34.408C36.9008 35.24 36.1008 35.9333 35.0768 36.488C34.0741 37.0213 32.9114 37.288 31.5888 37.288C30.0954 37.288 28.7301 36.904 27.4928 36.136C26.2768 35.368 25.3061 34.2907 24.5807 32.904C23.8767 31.496 23.5247 29.8853 23.5247 28.072ZM37.4768 28.136C37.4768 27.048 37.2634 26.12 36.8368 25.352C36.4101 24.5627 35.8341 23.9653 35.1088 23.56C34.3834 23.1333 33.6048 22.92 32.7728 22.92C31.9408 22.92 31.1728 23.1227 30.4688 23.528C29.7648 23.9333 29.1888 24.5307 28.7408 25.32C28.3141 26.088 28.1008 27.0053 28.1008 28.072C28.1008 29.1387 28.3141 30.0773 28.7408 30.888C29.1888 31.6773 29.7648 32.2853 30.4688 32.712C31.1941 33.1387 31.9621 33.352 32.7728 33.352C33.6048 33.352 34.3834 33.1493 35.1088 32.744C35.8341 32.3173 36.4101 31.72 36.8368 30.952C37.2634 30.1627 37.4768 29.224 37.4768 28.136ZM56.1883 19.016C58.3003 19.016 60.0069 19.688 61.3083 21.032C62.6096 22.3547 63.2603 24.2107 63.2603 26.6V37H58.7803V27.208C58.7803 25.8 58.4283 24.7227 57.7243 23.976C57.0203 23.208 56.0603 22.824 54.8443 22.824C53.6069 22.824 52.6256 23.208 51.9003 23.976C51.1963 24.7227 50.8443 25.8 50.8443 27.208V37H46.3643V19.272H50.8443V21.48C51.4416 20.712 52.1989 20.1147 53.1163 19.688C54.0549 19.24 55.0789 19.016 56.1883 19.016ZM66.3685 28.072C66.3685 26.28 66.7205 24.6907 67.4245 23.304C68.1498 21.9173 69.1312 20.8507 70.3685 20.104C71.6058 19.3573 72.9818 18.984 74.4965 18.984C75.6485 18.984 76.7472 19.24 77.7925 19.752C78.8378 20.2427 79.6698 20.904 80.2885 21.736V13.32H84.8325V37H80.2885V34.376C79.7338 35.2507 78.9552 35.9547 77.9525 36.488C76.9498 37.0213 75.7872 37.288 74.4645 37.288C72.9712 37.288 71.6058 36.904 70.3685 36.136C69.1312 35.368 68.1498 34.2907 67.4245 32.904C66.7205 31.496 66.3685 29.8853 66.3685 28.072ZM80.3205 28.136C80.3205 27.048 80.1072 26.12 79.6805 25.352C79.2538 24.5627 78.6778 23.9653 77.9525 23.56C77.2272 23.1333 76.4485 22.92 75.6165 22.92C74.7845 22.92 74.0165 23.1227 73.3125 23.528C72.6085 23.9333 72.0325 24.5307 71.5845 25.32C71.1578 26.088 70.9445 27.0053 70.9445 28.072C70.9445 29.1387 71.1578 30.0773 71.5845 30.888C72.0325 31.6773 72.6085 32.2853 73.3125 32.712C74.0378 33.1387 74.8058 33.352 75.6165 33.352C76.4485 33.352 77.2272 33.1493 77.9525 32.744C78.6778 32.3173 79.2538 31.72 79.6805 30.952C80.1072 30.1627 80.3205 29.224 80.3205 28.136ZM105.944 19.272V37H101.432V34.76C100.856 35.528 100.099 36.136 99.16 36.584C98.2427 37.0107 97.24 37.224 96.152 37.224C94.7653 37.224 93.5387 36.936 92.472 36.36C91.4053 35.7627 90.5627 34.8987 89.944 33.768C89.3467 32.616 89.048 31.2507 89.048 29.672V19.272H93.528V29.032C93.528 30.44 93.88 31.528 94.584 32.296C95.288 33.0427 96.248 33.416 97.464 33.416C98.7013 33.416 99.672 33.0427 100.376 32.296C101.08 31.528 101.432 30.44 101.432 29.032V19.272H105.944ZM114.844 22.024C115.42 21.0853 116.167 20.3493 117.084 19.816C118.023 19.2827 119.09 19.016 120.284 19.016V23.72H119.1C117.692 23.72 116.626 24.0507 115.9 24.712C115.196 25.3733 114.844 26.5253 114.844 28.168V37H110.364V19.272H114.844V22.024ZM122.15 28.072C122.15 26.28 122.502 24.6907 123.206 23.304C123.931 21.9173 124.902 20.8507 126.118 20.104C127.355 19.3573 128.731 18.984 130.246 18.984C131.568 18.984 132.72 19.2507 133.702 19.784C134.704 20.3173 135.504 20.9893 136.102 21.8V19.272H140.614V37H136.102V34.408C135.526 35.24 134.726 35.9333 133.702 36.488C132.699 37.0213 131.536 37.288 130.214 37.288C128.72 37.288 127.355 36.904 126.118 36.136C124.902 35.368 123.931 34.2907 123.206 32.904C122.502 31.496 122.15 29.8853 122.15 28.072ZM136.102 28.136C136.102 27.048 135.888 26.12 135.462 25.352C135.035 24.5627 134.459 23.9653 133.734 23.56C133.008 23.1333 132.23 22.92 131.398 22.92C130.566 22.92 129.798 23.1227 129.094 23.528C128.39 23.9333 127.814 24.5307 127.366 25.32C126.939 26.088 126.726 27.0053 126.726 28.072C126.726 29.1387 126.939 30.0773 127.366 30.888C127.814 31.6773 128.39 32.2853 129.094 32.712C129.819 33.1387 130.587 33.352 131.398 33.352C132.23 33.352 133.008 33.1493 133.734 32.744C134.459 32.3173 135.035 31.72 135.462 30.952C135.888 30.1627 136.102 29.224 136.102 28.136ZM154.813 19.016C156.925 19.016 158.632 19.688 159.933 21.032C161.235 22.3547 161.885 24.2107 161.885 26.6V37H157.405V27.208C157.405 25.8 157.053 24.7227 156.349 23.976C155.645 23.208 154.685 22.824 153.469 22.824C152.232 22.824 151.251 23.208 150.525 23.976C149.821 24.7227 149.469 25.8 149.469 27.208V37H144.989V19.272H149.469V21.48C150.067 20.712 150.824 20.1147 151.741 19.688C152.68 19.24 153.704 19.016 154.813 19.016Z" fill="#1D9300"/>
<path d="M14.5 2C14.5 1.17157 13.8284 0.5 13 0.5C12.1716 0.5 11.5 1.17157 11.5 2H14.5ZM13 12L11.9854 13.1048C12.5592 13.6317 13.4408 13.6317 14.0146 13.1048L13 12ZM7.01461 4.46663C6.40445 3.90628 5.45556 3.94666 4.89521 4.55682C4.33485 5.16698 4.37523 6.11587 4.98539 6.67622L7.01461 4.46663ZM21.0146 6.67622C21.6248 6.11587 21.6651 5.16698 21.1048 4.55682C20.5444 3.94666 19.5956 3.90628 18.9854 4.46663L21.0146 6.67622ZM11.5 2V12H14.5V2H11.5ZM14.0146 10.8952L7.01461 4.46663L4.98539 6.67622L11.9854 13.1048L14.0146 10.8952ZM14.0146 13.1048L21.0146 6.67622L18.9854 4.46663L11.9854 10.8952L14.0146 13.1048Z" fill="#1D9300"/>
</g>
<defs>
<filter id="filter0_d_65_101" x="0.5" y="0.5" width="165.385" height="44.788" filterUnits="userSpaceOnUse" color-interpolation-filters="sRGB">
<feFlood flood-opacity="0" result="BackgroundImageFix"/>
<feColorMatrix in="SourceAlpha" type="matrix" values="0 0 0 0 0 0 0 0 0 0 0 0 0 0 0 0 0 0 127 0" result="hardAlpha"/>
<feOffset dy="4"/>
<feGaussianBlur stdDeviation="2"/>
<feComposite in2="hardAlpha" operator="out"/>
<feColorMatrix type="matrix" values="0 0 0 0 0 0 0 0 0 0 0 0 0 0 0 0 0 0 0.25 0"/>
<feBlend mode="normal" in2="BackgroundImageFix" result="effect1_dropShadow_65_101"/>
<feBlend mode="normal" in="SourceGraphic" in2="effect1_dropShadow_65_101" result="shape"/>
</filter>
</defs>
</svg>
